HIERARCHY
ROOT Hips
{
	OFFSET	0.000000	0.000000	0.000000
	CHANNELS 6 Xposition Yposition Zposition Zrotation Xrotation Yrotation
	JOINT LeftHip
	{
		OFFSET	11.298960	-8.380145	1.031225
		CHANNELS 3 Zrotation Xrotation Yrotation
		JOINT LeftKnee
		{
			OFFSET	-1.779039	-39.577010	0.417431
			CHANNELS 3 Zrotation Xrotation Yrotation
			JOINT LeftAnkle
			{
				OFFSET	0.890862	-42.943018	-6.321374
				CHANNELS 3 Zrotation Xrotation Yrotation
				JOINT LeftAnkleEnd
				{
					OFFSET	-0.632740	-5.685484	-5.621922
					CHANNELS 3 Zrotation Xrotation Yrotation
					End Site
					{
						OFFSET	0.012764	-1.270000	17.907023
					}
				}
			}
		}
	}
	JOINT RightHip
	{
		OFFSET	-11.298960	-8.380145	1.031225
		CHANNELS 3 Zrotation Xrotation Yrotation
		JOINT RightKnee
		{
			OFFSET	1.779039	-39.577010	0.417431
			CHANNELS 3 Zrotation Xrotation Yrotation
			JOINT RightAnkle
			{
				OFFSET	-0.890862	-42.943018	-6.321374
				CHANNELS 3 Zrotation Xrotation Yrotation
				JOINT RightAnkleEnd
				{
					OFFSET	0.632740	-5.685484	-5.621922
					CHANNELS 3 Zrotation Xrotation Yrotation
					End Site
					{
						OFFSET	-0.012764	-1.270000	17.907023
					}
				}
			}
		}
	}
	JOINT Chest
	{
		OFFSET	0.000013	6.720637	2.223076
		CHANNELS 3 Zrotation Xrotation Yrotation
		JOINT Chest1
		{
			OFFSET	-0.073051	18.182640	-2.749017
			CHANNELS 3 Zrotation Xrotation Yrotation
			JOINT LeftCollar
			{
				OFFSET	7.790763	29.076902	-2.820492
				CHANNELS 3 Zrotation Xrotation Yrotation
				JOINT LeftShoulder
				{
					OFFSET	13.187018	-7.309688	1.779387
					CHANNELS 3 Zrotation Xrotation Yrotation
					JOINT LeftElbow
					{
						OFFSET	3.671976	-29.168340	5.964022
						CHANNELS 3 Zrotation Xrotation Yrotation
						JOINT LeftWrist
						{
							OFFSET	0.572018	-25.624790	10.228225
							CHANNELS 3 Zrotation Xrotation Yrotation
							End Site
							{
								OFFSET	-1.779270	-8.879179	2.542515
							}
						}
					}
				}
			}
			JOINT RightCollar
			{
				OFFSET	-7.644689	29.076902	-2.820492
				CHANNELS 3 Zrotation Xrotation Yrotation
				JOINT RightShoulder
				{
					OFFSET	-13.187018	-7.309688	1.779387
					CHANNELS 3 Zrotation Xrotation Yrotation
					JOINT RightElbow
					{
						OFFSET	-3.671976	-29.168340	5.964022
						CHANNELS 3 Zrotation Xrotation Yrotation
						JOINT RightWrist
						{
							OFFSET	-0.572018	-25.624790	10.228225
							CHANNELS 3 Zrotation Xrotation Yrotation
							End Site
							{
								OFFSET	1.779270	-8.879179	2.542515
							}
						}
					}
				}
			}
			JOINT Neck
			{
				OFFSET	-0.441376	29.919930	-1.795122
				CHANNELS 3 Zrotation Xrotation Yrotation
				JOINT Head
				{
					OFFSET	-0.451988	10.184461	3.285312
					CHANNELS 3 Zrotation Xrotation Yrotation
					End Site
					{
						OFFSET	-0.448112	13.050622	-3.935146
					}
				}
			}
		}
	}
}
MOTION
Frames:     9
Frame Time: 0.008333
-39.190139	81.622536	-34.954176	8.528960	31.027002	-2.930420	54.537605	-53.493191	47.897503	-10.653105	24.621201	12.803896	-11.573505	19.625004	19.124699	0.	0.	0.	-73.696602	-33.202496	-40.638199	8.509049	21.323400	-11.924501	23.588100	15.991399	3.171150	0.	0.	0.	-9.141170	26.017797	-9.977300	16.491598	-1.001978	2.421151	4.069625	-15.858096	-16.161499	112.699005	-64.489708	37.478802	15.474198	-67.921661	-18.700800	22.823704	-9.481749	5.944327	-4.244912	-9.107478	-2.328208	-13.964997	3.821465	-20.446898	-15.730496	-5.236372	-52.709297	-5.863711	-8.215862	-7.265795	-4.554481	-27.299898	12.167402	-10.192797	-1.167069	4.915465	
-37.867838	82.112167	-34.762432	8.459880	31.817200	-3.389910	55.434399	-53.972500	48.959797	-11.657600	25.260500	14.227500	-11.126599	18.584501	19.151102	0.	0.	0.	-72.828697	-32.776695	-40.082401	7.480219	18.018200	-10.974199	22.767799	18.201099	2.198332	0.	0.	0.	-9.131989	25.354601	-10.873099	16.340298	-0.775205	2.650278	4.470539	-15.312002	-16.141401	112.665993	-63.308212	37.256912	16.184998	-67.285507	-17.812405	22.883205	-9.657103	5.957874	-4.117321	-8.834041	-2.320932	-13.377900	4.163198	-20.540506	-15.381800	-4.870791	-54.284401	-6.947089	-8.084398	-7.520169	-4.633550	-27.314201	12.697698	-9.831860	-1.338140	4.892039	
-36.512957	82.608513	-34.606819	8.304759	32.597900	-3.804010	56.348396	-54.428497	49.948296	-12.672102	25.751299	15.521600	-10.570903	17.593401	19.171501	0.	0.	0.	-71.842499	-32.369598	-39.392498	6.652874	14.719203	-10.168498	21.731596	20.211107	1.407529	0.	0.	0.	-9.048100	24.705500	-11.724300	16.158600	-0.559090	2.897969	4.840480	-14.710896	-16.095104	112.613007	-61.956394	37.041096	16.936695	-66.512756	-16.819996	22.906296	-9.829636	5.964496	-4.024359	-8.530179	-2.300691	-12.799198	4.467219	-20.660002	-15.008495	-4.628026	-55.937702	-8.194080	-8.021242	-7.858920	-4.728450	-27.322794	13.182200	-9.460360	-1.519067	4.843640	
-35.132155	83.109567	-34.483234	8.080470	33.342899	-4.172100	57.243099	-54.868099	50.837601	-13.677201	26.129105	16.644503	-9.936371	16.674402	19.220200	0.	0.	0.	-70.759903	-31.985207	-38.558105	6.028089	11.566002	-9.527100	20.486696	21.882700	0.866061	0.	0.	0.	-8.922051	24.099800	-12.505300	15.945500	-0.365819	3.156222	5.173538	-14.075603	-16.026499	112.477997	-60.453300	36.778809	17.712500	-65.600098	-15.742596	22.886499	-9.994836	5.961174	-3.959260	-8.202103	-2.291499	-12.240700	4.733868	-20.812202	-14.610098	-4.515145	-57.641994	-9.587198	-8.041849	-8.301476	-4.827862	-27.316002	13.601100	-9.084082	-1.713270	4.775960	
-33.732013	83.611756	-34.388140	7.807380	34.028999	-4.494150	58.076103	-55.297905	51.606800	-14.655402	26.424200	17.574600	-9.249480	15.842600	19.317699	0.	0.	0.	-69.608398	-31.626604	-37.584099	5.593760	8.706958	-9.055402	19.055901	23.083399	0.614820	0.	0.	0.	-8.785691	23.564005	-13.195800	15.699098	-0.209617	3.418229	5.464228	-13.426901	-15.940198	112.198997	-58.816311	36.417999	18.499992	-64.549332	-14.596291	22.819101	-10.149008	5.945362	-3.912703	-7.857551	-2.315490	-11.722004	4.962669	-21.004301	-14.185203	-4.532131	-59.362499	-11.104501	-8.158663	-8.864321	-4.921282	-27.282202	13.935799	-8.707513	-1.923158	4.694567	
-32.320609	84.110107	-34.318232	7.507560	34.637600	-4.771240	58.803204	-55.723221	52.240398	-15.590501	26.660105	18.309401	-8.533813	15.106401	19.470800	0.	0.	0.	-68.417198	-31.297310	-36.490108	5.329003	6.285510	-8.743132	17.488003	23.698799	0.655646	0.	0.	0.	-8.668290	23.119303	-13.781101	15.416900	-0.105453	3.679149	5.707799	-12.783605	-15.841198	111.719994	-57.058922	35.915306	19.290497	-63.368530	-13.394000	22.701601	-10.289405	5.915185	-3.873730	-7.505433	-2.391631	-11.268001	5.152760	-21.242399	-13.730597	-4.672001	-61.059612	-12.720703	-8.379410	-9.558204	-4.999821	-27.209009	14.170300	-8.333630	-2.149772	4.604949	
-30.907355	84.598595	-34.271762	7.202840	35.155998	-5.006100	59.384308	-56.147999	52.728798	-16.468300	26.852892	18.861797	-7.810741	14.468298	19.675303	0.	0.	0.	-67.213203	-31.001301	-35.308296	5.209409	4.426539	-8.565550	15.863000	23.644302	0.944835	0.	0.	0.	-8.595030	22.780603	-14.252401	15.095895	-0.067537	3.936397	5.900596	-12.160997	-15.735601	111.002014	-55.189598	35.240795	20.078102	-62.071880	-12.146495	22.534399	-10.414392	5.869553	-3.830972	-7.155148	-2.534743	-10.907299	5.303214	-21.530804	-13.242997	-4.922145	-62.692410	-14.407705	-8.706004	-10.385896	-5.056881	-27.084698	14.291397	-7.963959	-2.392607	4.512381	
-29.502705	85.070940	-34.248229	6.913000	35.577900	-5.203430	59.787899	-56.573807	53.068501	-17.277197	27.011597	19.256201	-7.099788	13.926198	19.918306	0.	0.	0.	-66.017708	-30.743700	-34.079800	5.210677	3.223791	-8.486981	14.284493	22.875402	1.397790	0.	0.	0.	-8.585680	22.554602	-14.606602	14.733702	-0.107898	4.189663	6.040561	-11.570697	-15.630298	110.023010	-53.211288	34.382393	20.858006	-60.679195	-10.863503	22.320499	-10.523598	5.808142	-3.774068	-6.815879	-2.754557	-10.668296	5.413208	-21.870796	-12.718295	-5.267041	-64.221489	-16.135294	-9.134168	-11.340801	-5.088309	-26.898893	14.290402	-7.598699	-2.649539	4.421821	
-28.118249	85.521310	-34.247846	6.654090	35.903500	-5.369940	59.995701	-56.999096	53.262905	-18.008900	27.139700	19.524002	-6.418531	13.474799	20.182800	0.	0.	0.	-64.843597	-30.529806	-32.849304	5.309506	2.730331	-8.466871	12.859597	21.394602	1.905589	0.	0.	0.	-8.653560	22.439899	-14.845102	14.329100	-0.235053	4.440382	6.127590	-11.019501	-15.532501	108.785004	-51.122585	33.347599	21.625412	-59.215000	-9.555224	22.065907	-10.617399	5.731366	-3.695080	-6.495722	-3.055229	-10.577201	5.482240	-22.260899	-12.152900	-5.691189	-65.611000	-17.871300	-9.653869	-12.406702	-5.092481	-26.644100	14.163601	-7.237131	-2.916967	4.337609	
